<svg width="15" height="14" viewBox="0 0 15 14" fill="none" xmlns="http://www.w3.org/2000/svg">
<path d="M6.11875 1.09375L6.80625 0.40625C7.11875 0.125 7.5875 0.125 7.86875 0.40625L13.9625 6.46875C14.2438 6.78125 14.2438 7.25 13.9625 7.53125L7.86875 13.625C7.5875 13.9062 7.11875 13.9062 6.80625 13.625L6.11875 12.9375C5.8375 12.625 5.8375 12.1562 6.11875 11.8438L9.9 8.25H0.93125C0.49375 8.25 0.18125 7.9375 0.18125 7.5V6.5C0.18125 6.09375 0.49375 5.75 0.93125 5.75H9.9L6.11875 2.1875C5.8375 1.875 5.80625 1.40625 6.11875 1.09375Z" fill="#CD85ED"/>
</svg>
