<svg width="307" height="29" viewBox="0 0 307 29" fill="none" xmlns="http://www.w3.org/2000/svg">
<path d="M7.56 28V25.32H12.16V0.719998H17.6V25.32H22.2V28H7.56ZM0.92 10.32V3.64H7.36C6.10667 3.64 5.22667 3.92 4.72 4.48C4.21333 5.04 3.96 5.98667 3.96 7.32V10.32H0.92ZM0.92 3.64V0.719998H28.84V3.64H0.92ZM25.8 7.32C25.8 5.98667 25.5467 5.04 25.04 4.48C24.56 3.92 23.68 3.64 22.4 3.64H28.84V10.32H25.8V7.32ZM44.0053 28.6C40.9653 28.6 38.2853 28.0533 35.9653 26.96C33.672 25.84 31.8853 24.2267 30.6053 22.12C29.3253 19.9867 28.6853 17.4 28.6853 14.36C28.6853 11.32 29.3253 8.74667 30.6053 6.64C31.8853 4.50667 33.672 2.89333 35.9653 1.8C38.2853 0.679999 40.9653 0.119999 44.0053 0.119999C47.072 0.119999 49.752 0.679999 52.0453 1.8C54.3386 2.89333 56.1253 4.50667 57.4053 6.64C58.6853 8.74667 59.3253 11.32 59.3253 14.36C59.3253 17.4 58.6853 19.9867 57.4053 22.12C56.1253 24.2267 54.3386 25.84 52.0453 26.96C49.752 28.0533 47.072 28.6 44.0053 28.6ZM44.0053 25.56C45.9253 25.56 47.5786 25.12 48.9653 24.24C50.3786 23.36 51.4453 22.0933 52.1653 20.44C52.912 18.76 53.2853 16.7333 53.2853 14.36C53.2853 11.9867 52.912 9.97333 52.1653 8.32C51.4453 6.64 50.3786 5.36 48.9653 4.48C47.5786 3.6 45.9253 3.16 44.0053 3.16C42.0853 3.16 40.4186 3.6 39.0053 4.48C37.6186 5.36 36.552 6.62667 35.8053 8.28C35.0586 9.93333 34.6853 11.96 34.6853 14.36C34.6853 16.7333 35.0586 18.76 35.8053 20.44C36.552 22.0933 37.6186 23.36 39.0053 24.24C40.4186 25.12 42.0853 25.56 44.0053 25.56ZM75.3022 28L65.7022 8.24V0.719998H67.8622L78.6222 22.96H77.6622L88.0222 0.719998H88.5422V7.6L78.9822 28H75.3022ZM58.7422 28V25.32H62.3022V3.4H58.8222V0.719998H65.7022V25.32H69.5422V28H58.7422ZM84.6622 28V25.32H88.5422V0.719998H97.3022V3.4H93.8222V25.32H97.3822V28H84.6622ZM113.382 28L103.782 8.24V0.719998H105.942L116.702 22.96H115.742L126.102 0.719998H126.622V7.6L117.062 28H113.382ZM96.8219 28V25.32H100.382V3.4H96.9019V0.719998H103.782V25.32H107.622V28H96.8219ZM122.742 28V25.32H126.622V0.719998H135.382V3.4H131.902V25.32H135.462V28H122.742ZM134.742 28V25.32H138.622V3.4H134.822V0.719998H147.822V3.4H144.022V25.32H147.902V28H134.742ZM169.044 28.48C167.07 28.48 165.217 28.16 163.484 27.52C161.75 26.88 160.284 25.88 159.084 24.52C157.91 23.16 157.137 21.4 156.764 19.24H158.204C158.817 20.6267 159.617 21.7867 160.604 22.72C161.617 23.6267 162.777 24.3067 164.084 24.76C165.417 25.2133 166.844 25.44 168.364 25.44C170.124 25.44 171.484 25.0933 172.444 24.4C173.43 23.68 173.924 22.64 173.924 21.28C173.924 20.3467 173.657 19.6 173.124 19.04C172.617 18.48 171.924 18.0533 171.044 17.76C170.19 17.4667 169.257 17.24 168.244 17.08L165.244 16.64C163.244 16.3467 161.444 15.88 159.844 15.24C158.244 14.5733 156.977 13.6533 156.044 12.48C155.11 11.3067 154.644 9.82667 154.644 8.04C154.644 6.22667 155.07 4.74667 155.924 3.6C156.777 2.45333 157.937 1.61333 159.404 1.08C160.87 0.519999 162.55 0.24 164.444 0.24C166.284 0.24 167.99 0.546666 169.564 1.16C171.164 1.74667 172.51 2.69333 173.604 4C174.724 5.28 175.47 6.98667 175.844 9.12H174.524C173.75 7.12 172.51 5.65333 170.804 4.72C169.124 3.76 167.244 3.28 165.164 3.28C163.43 3.28 162.084 3.6 161.124 4.24C160.164 4.88 159.684 5.86666 159.684 7.2C159.684 8.08 159.924 8.8 160.404 9.36C160.884 9.92 161.524 10.3467 162.324 10.64C163.15 10.9333 164.057 11.16 165.044 11.32L168.004 11.76C170.11 12.0533 171.99 12.52 173.644 13.16C175.297 13.7733 176.604 14.64 177.564 15.76C178.524 16.88 179.004 18.36 179.004 20.2C179.004 22.04 178.59 23.5733 177.764 24.8C176.937 26.0267 175.777 26.9467 174.284 27.56C172.79 28.1733 171.044 28.48 169.044 28.48ZM154.924 28V19.24H156.764L158.124 22.04V28H154.924ZM175.844 9.12L174.604 6.44V0.719998H177.764V9.12H175.844ZM185.329 28V25.32H189.929V0.719998H195.369V25.32H199.969V28H185.329ZM178.689 10.32V3.64H185.129C183.875 3.64 182.995 3.92 182.489 4.48C181.982 5.04 181.729 5.98667 181.729 7.32V10.32H178.689ZM178.689 3.64V0.719998H206.609V3.64H178.689ZM203.569 7.32C203.569 5.98667 203.315 5.04 202.809 4.48C202.329 3.92 201.449 3.64 200.169 3.64H206.609V10.32H203.569V7.32ZM221.487 28.44C217.487 28.44 214.447 27.44 212.367 25.44C210.313 23.4133 209.287 20.52 209.287 16.76V3.4H205.847V0.719998H218.527V3.4H214.727V17.2C214.727 19.6533 215.327 21.5733 216.527 22.96C217.753 24.32 219.633 25 222.167 25C224.7 25 226.553 24.32 227.727 22.96C228.927 21.5733 229.527 19.6533 229.527 17.2V3.4H225.727V0.719998H237.087V3.4H233.647V16.76C233.647 20.52 232.62 23.4133 230.567 25.44C228.54 27.44 225.513 28.44 221.487 28.44ZM244.613 28V25.04H249.053C250.999 25.04 252.706 24.6133 254.173 23.76C255.666 22.88 256.826 21.64 257.653 20.04C258.479 18.4133 258.893 16.52 258.893 14.36C258.893 12.1733 258.479 10.28 257.653 8.68C256.826 7.08 255.666 5.84 254.173 4.96C252.706 4.08 250.999 3.64 249.053 3.64H244.613V0.719998H249.573C252.613 0.719998 255.253 1.25333 257.493 2.32C259.759 3.38666 261.519 4.93333 262.773 6.96C264.053 8.98667 264.693 11.4533 264.693 14.36C264.693 17.24 264.053 19.7067 262.773 21.76C261.519 23.7867 259.759 25.3333 257.493 26.4C255.253 27.4667 252.613 28 249.573 28H244.613ZM235.613 28V25.32H239.173V3.4H235.693V0.719998H244.613V28H235.613ZM263.884 28V25.32H267.764V3.4H263.964V0.719998H276.964V3.4H273.164V25.32H277.044V28H263.884ZM291.599 28.6C288.559 28.6 285.879 28.0533 283.559 26.96C281.266 25.84 279.479 24.2267 278.199 22.12C276.919 19.9867 276.279 17.4 276.279 14.36C276.279 11.32 276.919 8.74667 278.199 6.64C279.479 4.50667 281.266 2.89333 283.559 1.8C285.879 0.679999 288.559 0.119999 291.599 0.119999C294.666 0.119999 297.346 0.679999 299.639 1.8C301.932 2.89333 303.719 4.50667 304.999 6.64C306.279 8.74667 306.919 11.32 306.919 14.36C306.919 17.4 306.279 19.9867 304.999 22.12C303.719 24.2267 301.932 25.84 299.639 26.96C297.346 28.0533 294.666 28.6 291.599 28.6ZM291.599 25.56C293.519 25.56 295.172 25.12 296.559 24.24C297.972 23.36 299.039 22.0933 299.759 20.44C300.506 18.76 300.879 16.7333 300.879 14.36C300.879 11.9867 300.506 9.97333 299.759 8.32C299.039 6.64 297.972 5.36 296.559 4.48C295.172 3.6 293.519 3.16 291.599 3.16C289.679 3.16 288.012 3.6 286.599 4.48C285.212 5.36 284.146 6.62667 283.399 8.28C282.652 9.93333 282.279 11.96 282.279 14.36C282.279 16.7333 282.652 18.76 283.399 20.44C284.146 22.0933 285.212 23.36 286.599 24.24C288.012 25.12 289.679 25.56 291.599 25.56Z" fill="#FAECEC"/>
</svg>
