<svg width="38" height="38" viewBox="0 0 38 38" fill="none" xmlns="http://www.w3.org/2000/svg">
<g opacity="0.8">
<path d="M10.6989 1.5H27.3003C27.3006 1.5 27.3009 1.5 27.3011 1.5C32.3817 1.50042 36.5 5.61828 36.5 10.6989V27.3003C36.5 32.3813 32.3813 36.5 27.3003 36.5H10.6996C5.61869 36.5 1.5 32.382 1.5 27.3011V10.6989C1.5 5.61871 5.618 1.5 10.6989 1.5Z" stroke="#FAECEC"/>
<path d="M27.3011 1H10.6989C5.34183 1 1 5.3426 1 10.6989V27.3011C1 32.6582 5.3426 37 10.6996 37H27.3003C32.6574 37 37 32.6574 37 27.3003V10.6989C37 5.34183 32.6574 1 27.3003 1H27.3011Z" stroke="#FAECEC" stroke-miterlimit="10"/>
<path d="M18.9999 27.6902C23.7991 27.6902 27.6897 23.7996 27.6897 19.0004C27.6897 14.2011 23.7991 10.3105 18.9999 10.3105C14.2006 10.3105 10.3101 14.2011 10.3101 19.0004C10.3101 23.7996 14.2006 27.6902 18.9999 27.6902Z" stroke="#FAECEC" stroke-miterlimit="10"/>
<path d="M30.9137 8.44782C30.9137 9.19997 30.304 9.80971 29.5518 9.80971C28.7997 9.80971 28.1899 9.19997 28.1899 8.44782C28.1899 7.69567 28.7997 7.08594 29.5518 7.08594C30.304 7.08594 30.9137 7.69567 30.9137 8.44782Z" fill="#333333" stroke="#FAECEC"/>
</g>
</svg>
