<svg width="217" height="21" viewBox="0 0 217 21" fill="none" xmlns="http://www.w3.org/2000/svg">
<path d="M5.16 20V18.096H8.296V0.903999H12.104V18.096H15.24V20H5.16ZM0.344 7.596V2.976H4.908C4.03067 2.976 3.41467 3.172 3.06 3.564C2.70533 3.956 2.528 4.61867 2.528 5.552V7.596H0.344ZM0.344 2.976V0.903999H20.056V2.976H0.344ZM17.9 5.552C17.9 4.61867 17.7227 3.956 17.368 3.564C17.0133 3.172 16.388 2.976 15.492 2.976H20.056V7.596H17.9V5.552ZM30.7791 20.42C28.6325 20.42 26.7471 20.0373 25.1231 19.272C23.4991 18.488 22.2298 17.3587 21.3151 15.884C20.4191 14.3907 19.9711 12.58 19.9711 10.452C19.9711 8.324 20.4191 6.52267 21.3151 5.048C22.2298 3.55467 23.4991 2.42533 25.1231 1.66C26.7471 0.875999 28.6325 0.483999 30.7791 0.483999C32.9258 0.483999 34.8018 0.875999 36.4071 1.66C38.0311 2.42533 39.2911 3.55467 40.1871 5.048C41.1018 6.52267 41.5591 8.324 41.5591 10.452C41.5591 12.58 41.1018 14.3907 40.1871 15.884C39.2911 17.3587 38.0311 18.488 36.4071 19.272C34.8018 20.0373 32.9258 20.42 30.7791 20.42ZM30.7511 18.264C32.1138 18.264 33.2898 17.956 34.2791 17.34C35.2685 16.724 36.0245 15.8373 36.5471 14.68C37.0698 13.5227 37.3311 12.1133 37.3311 10.452C37.3311 8.79067 37.0698 7.38133 36.5471 6.224C36.0245 5.06667 35.2685 4.18 34.2791 3.564C33.2898 2.948 32.1231 2.64 30.7791 2.64C29.4165 2.64 28.2405 2.948 27.2511 3.564C26.2805 4.18 25.5245 5.06667 24.9831 6.224C24.4605 7.38133 24.1991 8.79067 24.1991 10.452C24.1991 12.1133 24.4605 13.5227 24.9831 14.68C25.5245 15.8373 26.2805 16.724 27.2511 17.34C28.2405 17.956 29.4071 18.264 30.7511 18.264ZM52.8517 20L46.0757 6.196V0.903999H47.5877L55.1757 16.472H54.5037L61.8397 0.903999H62.2037V5.748L55.4557 20H52.8517ZM41.1757 20V18.096H43.6677V2.808H41.2317V0.903999H46.0757V18.096H48.7637V20H41.1757ZM59.5157 20V18.096H62.2037V0.903999H68.3357V2.808H65.9277V18.096H68.3917V20H59.5157ZM79.7809 20L73.0049 6.196V0.903999H74.5169L82.1049 16.472H81.4329L88.7689 0.903999H89.1329V5.748L82.3849 20H79.7809ZM68.1049 20V18.096H70.5969V2.808H68.1609V0.903999H73.0049V18.096H75.6929V20H68.1049ZM86.4449 20V18.096H89.1329V0.903999H95.2649V2.808H92.8569V18.096H95.3209V20H86.4449ZM94.8941 20V18.096H97.6101V2.808H94.9501V0.903999H104.05V2.808H101.418V18.096H104.106V20H94.8941ZM119.126 20.336C117.744 20.336 116.447 20.112 115.234 19.664C114.02 19.216 112.994 18.5253 112.154 17.592C111.314 16.64 110.763 15.4267 110.502 13.952H111.538C111.967 14.904 112.527 15.6973 113.218 16.332C113.927 16.948 114.739 17.4053 115.654 17.704C116.587 18.0027 117.595 18.152 118.678 18.152C119.91 18.152 120.862 17.9093 121.534 17.424C122.224 16.9387 122.57 16.22 122.57 15.268C122.57 14.6147 122.383 14.1013 122.01 13.728C121.655 13.336 121.17 13.0373 120.554 12.832C119.956 12.6267 119.294 12.468 118.566 12.356L116.466 12.048C115.066 11.8427 113.796 11.516 112.658 11.068C111.519 10.6013 110.623 9.95733 109.97 9.136C109.316 8.31467 108.99 7.27867 108.99 6.028C108.99 4.77733 109.288 3.75067 109.886 2.948C110.483 2.12667 111.304 1.52933 112.35 1.156C113.395 0.764 114.58 0.568 115.906 0.568C117.212 0.568 118.416 0.773333 119.518 1.184C120.638 1.59467 121.58 2.25733 122.346 3.172C123.13 4.068 123.652 5.244 123.914 6.7H122.99C122.43 5.33733 121.552 4.33867 120.358 3.704C119.182 3.05067 117.866 2.724 116.41 2.724C115.196 2.724 114.244 2.948 113.554 3.396C112.882 3.844 112.546 4.52533 112.546 5.44C112.546 6.07467 112.714 6.588 113.05 6.98C113.386 7.35333 113.843 7.64267 114.422 7.848C115 8.05333 115.635 8.212 116.326 8.324L118.426 8.632C119.9 8.81867 121.216 9.136 122.374 9.584C123.55 10.032 124.474 10.648 125.146 11.432C125.818 12.216 126.154 13.252 126.154 14.54C126.154 15.828 125.864 16.9013 125.286 17.76C124.707 18.6187 123.895 19.2627 122.85 19.692C121.804 20.1213 120.563 20.336 119.126 20.336ZM109.186 20V13.952H110.502L111.482 15.94V20H109.186ZM123.914 6.7L123.046 4.768V0.903999H125.286V6.7H123.914ZM130.774 20V18.096H133.91V0.903999H137.718V18.096H140.854V20H130.774ZM125.958 7.596V2.976H130.522C129.645 2.976 129.029 3.172 128.674 3.564C128.319 3.956 128.142 4.61867 128.142 5.552V7.596H125.958ZM125.958 2.976V0.903999H145.67V2.976H125.958ZM143.514 5.552C143.514 4.61867 143.337 3.956 142.982 3.564C142.627 3.172 142.002 2.976 141.106 2.976H145.67V7.596H143.514V5.552ZM156.192 20.308C153.373 20.308 151.236 19.608 149.78 18.208C148.324 16.7893 147.596 14.7453 147.596 12.076V2.808H145.188V0.903999H154.036V2.808H151.404V12.328C151.404 14.064 151.833 15.4173 152.692 16.388C153.55 17.3587 154.866 17.844 156.64 17.844C158.432 17.844 159.738 17.3587 160.56 16.388C161.4 15.4173 161.82 14.064 161.82 12.328V2.808H159.188V0.903999H167.168V2.808H164.76V12.076C164.76 14.7453 164.041 16.7893 162.604 18.208C161.166 19.608 159.029 20.308 156.192 20.308ZM172.488 20V17.9H175.652C177.015 17.9 178.219 17.6013 179.264 17.004C180.309 16.388 181.121 15.52 181.7 14.4C182.297 13.28 182.596 11.964 182.596 10.452C182.596 8.92133 182.297 7.60533 181.7 6.504C181.121 5.384 180.309 4.516 179.264 3.9C178.219 3.284 177.015 2.976 175.652 2.976H172.488V0.903999H176.016C178.144 0.903999 180.001 1.27733 181.588 2.024C183.193 2.77067 184.435 3.85333 185.312 5.272C186.189 6.69067 186.628 8.41733 186.628 10.452C186.628 12.468 186.189 14.1947 185.312 15.632C184.435 17.0507 183.193 18.1333 181.588 18.88C180.001 19.6267 178.144 20 176.016 20H172.488ZM166.188 20V18.096H168.68V2.808H166.244V0.903999H172.488V20H166.188ZM186.114 20V18.096H188.83V2.808H186.17V0.903999H195.27V2.808H192.638V18.096H195.326V20H186.114ZM205.599 20.42C203.452 20.42 201.567 20.0373 199.943 19.272C198.319 18.488 197.049 17.3587 196.135 15.884C195.239 14.3907 194.791 12.58 194.791 10.452C194.791 8.324 195.239 6.52267 196.135 5.048C197.049 3.55467 198.319 2.42533 199.943 1.66C201.567 0.875999 203.452 0.483999 205.599 0.483999C207.745 0.483999 209.621 0.875999 211.227 1.66C212.851 2.42533 214.111 3.55467 215.007 5.048C215.921 6.52267 216.379 8.324 216.379 10.452C216.379 12.58 215.921 14.3907 215.007 15.884C214.111 17.3587 212.851 18.488 211.227 19.272C209.621 20.0373 207.745 20.42 205.599 20.42ZM205.571 18.264C206.933 18.264 208.109 17.956 209.099 17.34C210.088 16.724 210.844 15.8373 211.367 14.68C211.889 13.5227 212.151 12.1133 212.151 10.452C212.151 8.79067 211.889 7.38133 211.367 6.224C210.844 5.06667 210.088 4.18 209.099 3.564C208.109 2.948 206.943 2.64 205.599 2.64C204.236 2.64 203.06 2.948 202.071 3.564C201.1 4.18 200.344 5.06667 199.803 6.224C199.28 7.38133 199.019 8.79067 199.019 10.452C199.019 12.1133 199.28 13.5227 199.803 14.68C200.344 15.8373 201.1 16.724 202.071 17.34C203.06 17.956 204.227 18.264 205.571 18.264Z" fill="#67357D"/>
</svg>
