<svg width="574" height="56" viewBox="0 0 574 56" fill="none" xmlns="http://www.w3.org/2000/svg">
<path d="M11.938 54V48.995H21.64V1.486H32.035V48.995H41.737V54H11.938ZM0.542 20.428V6.876H12.631C10.2183 6.876 8.52433 7.415 7.549 8.493C6.57367 9.571 6.086 11.3933 6.086 13.96V20.428H0.542ZM0.542 6.876V1.486H53.133V6.876H0.542ZM47.589 13.96C47.589 11.3933 47.1013 9.571 46.126 8.493C45.1507 7.415 43.431 6.876 40.967 6.876H53.133V20.428H47.589V13.96ZM81.4383 55.155C75.689 55.155 70.6327 54.077 66.2693 51.921C61.9573 49.765 58.5693 46.6593 56.1053 42.604C53.6927 38.4973 52.4863 33.5437 52.4863 27.743C52.4863 21.9423 53.6927 17.0143 56.1053 12.959C58.5693 8.85233 61.9573 5.74666 66.2693 3.642C70.6327 1.486 75.689 0.407997 81.4383 0.407997C87.239 0.407997 92.2953 1.486 96.6073 3.642C100.971 5.74666 104.359 8.85233 106.771 12.959C109.184 17.0143 110.39 21.9423 110.39 27.743C110.39 33.5437 109.184 38.4973 106.771 42.604C104.359 46.6593 100.971 49.765 96.6073 51.921C92.2953 54.077 87.239 55.155 81.4383 55.155ZM81.4383 49.534C85.083 49.534 88.2143 48.687 90.8323 46.993C93.4503 45.2477 95.4523 42.758 96.8383 39.524C98.2243 36.29 98.9173 32.363 98.9173 27.743C98.9173 23.123 98.2243 19.196 96.8383 15.962C95.4523 12.728 93.4503 10.264 90.8323 8.57C88.2143 6.82467 85.083 5.952 81.4383 5.952C77.845 5.952 74.7393 6.799 72.1213 8.493C69.5033 10.187 67.4757 12.6767 66.0383 15.962C64.6523 19.196 63.9593 23.123 63.9593 27.743C63.9593 32.363 64.6523 36.29 66.0383 39.524C67.4757 42.758 69.5033 45.2477 72.1213 46.993C74.7393 48.687 77.845 49.534 81.4383 49.534ZM139.875 54L121.857 15.577V1.486H126.169L146.112 44.298H144.341L163.668 1.486H164.515V14.345L146.574 54H139.875ZM108.69 54V48.995H115.697V6.491H108.844V1.486H121.857V48.995H129.403V54H108.69ZM156.969 54V48.995H164.515V1.486H181.455V6.491H174.679V48.995H181.609V54H156.969ZM210.997 54L192.979 15.577V1.486H197.291L217.234 44.298H215.463L234.79 1.486H235.637V14.345L217.696 54H210.997ZM179.812 54V48.995H186.819V6.491H179.966V1.486H192.979V48.995H200.525V54H179.812ZM228.091 54V48.995H235.637V1.486H252.577V6.491H245.801V48.995H252.731V54H228.091ZM250.704 54V48.995H258.327V6.491H250.858V1.486H276.037V6.491H268.645V48.995H276.191V54H250.704ZM314.768 55.001C311.021 55.001 307.505 54.3593 304.219 53.076C300.985 51.7927 298.239 49.7907 295.98 47.07C293.722 44.3493 292.233 40.8073 291.514 36.444H294.132C295.262 39.3187 296.776 41.7313 298.675 43.682C300.626 45.5813 302.859 47.0187 305.374 47.994C307.941 48.918 310.687 49.38 313.613 49.38C316.899 49.38 319.44 48.687 321.236 47.301C323.084 45.915 324.008 43.8873 324.008 41.218C324.008 39.4213 323.521 37.984 322.545 36.906C321.57 35.7767 320.261 34.9297 318.618 34.365C317.027 33.749 315.282 33.3127 313.382 33.056L307.607 32.132C303.86 31.5673 300.472 30.6433 297.443 29.36C294.466 28.0767 292.105 26.3313 290.359 24.124C288.614 21.8653 287.741 19.0163 287.741 15.577C287.741 12.0863 288.511 9.23733 290.051 7.03C291.643 4.82266 293.824 3.20566 296.596 2.179C299.42 1.101 302.577 0.562 306.067 0.562C309.609 0.562 312.869 1.15233 315.846 2.333C318.875 3.51367 321.442 5.413 323.546 8.031C325.702 10.649 327.14 14.0883 327.858 18.349H325.317C323.88 14.2423 321.519 11.1623 318.233 9.109C314.999 7.05567 311.406 6.029 307.453 6.029C304.219 6.029 301.678 6.67066 299.83 7.954C298.034 9.23733 297.135 11.1623 297.135 13.729C297.135 15.4743 297.572 16.886 298.444 17.964C299.368 19.042 300.575 19.889 302.063 20.505C303.603 21.0697 305.323 21.5317 307.222 21.891L312.92 22.738C316.873 23.3027 320.389 24.201 323.469 25.433C326.601 26.665 329.065 28.359 330.861 30.515C332.658 32.671 333.556 35.52 333.556 39.062C333.556 42.604 332.761 45.5557 331.169 47.917C329.629 50.2783 327.448 52.0493 324.624 53.23C321.852 54.4107 318.567 55.001 314.768 55.001ZM288.28 54V36.444H291.514L294.055 41.449V54H288.28ZM327.858 18.349L325.394 13.575V1.486H331.169V18.349H327.858ZM344.217 54V48.995H353.919V1.486H364.314V48.995H374.016V54H344.217ZM332.821 20.428V6.876H344.91C342.497 6.876 340.803 7.415 339.828 8.493C338.853 9.571 338.365 11.3933 338.365 13.96V20.428H332.821ZM332.821 6.876V1.486H385.412V6.876H332.821ZM379.868 13.96C379.868 11.3933 379.38 9.571 378.405 8.493C377.43 7.415 375.71 6.876 373.246 6.876H385.412V20.428H379.868V13.96ZM413.087 54.847C405.541 54.847 399.843 52.9477 395.993 49.149C392.143 45.3503 390.218 39.909 390.218 32.825V6.491H383.519V1.486H407.928V6.491H400.536V33.98C400.536 38.6 401.665 42.219 403.924 44.837C406.234 47.4037 409.802 48.687 414.627 48.687C419.452 48.687 422.969 47.4037 425.176 44.837C427.435 42.219 428.564 38.6 428.564 33.98V6.491H421.172V1.486H442.732V6.491H436.033V32.825C436.033 39.909 434.108 45.3503 430.258 49.149C426.408 52.9477 420.684 54.847 413.087 54.847ZM456.639 54V48.533H464.724C468.42 48.533 471.654 47.686 474.426 45.992C477.25 44.298 479.431 41.8853 480.971 38.754C482.563 35.6227 483.358 31.9523 483.358 27.743C483.358 23.4823 482.563 19.7863 480.971 16.655C479.431 13.5237 477.25 11.111 474.426 9.417C471.654 7.723 468.42 6.876 464.724 6.876H456.639V1.486H465.725C471.475 1.486 476.505 2.51266 480.817 4.566C485.129 6.61933 488.466 9.59666 490.827 13.498C493.24 17.3993 494.446 22.1477 494.446 27.743C494.446 33.287 493.24 38.0353 490.827 41.988C488.466 45.8893 485.129 48.8667 480.817 50.92C476.505 52.9733 471.475 54 465.725 54H456.639ZM439.314 54V48.995H446.321V6.491H439.468V1.486H456.639V54H439.314ZM492.46 54V48.995H500.083V6.491H492.614V1.486H517.793V6.491H510.401V48.995H517.947V54H492.46ZM545.048 55.155C539.298 55.155 534.242 54.077 529.879 51.921C525.567 49.765 522.179 46.6593 519.715 42.604C517.302 38.4973 516.096 33.5437 516.096 27.743C516.096 21.9423 517.302 17.0143 519.715 12.959C522.179 8.85233 525.567 5.74666 529.879 3.642C534.242 1.486 539.298 0.407997 545.048 0.407997C550.848 0.407997 555.905 1.486 560.217 3.642C564.58 5.74666 567.968 8.85233 570.381 12.959C572.793 17.0143 574 21.9423 574 27.743C574 33.5437 572.793 38.4973 570.381 42.604C567.968 46.6593 564.58 49.765 560.217 51.921C555.905 54.077 550.848 55.155 545.048 55.155ZM545.048 49.534C548.692 49.534 551.824 48.687 554.442 46.993C557.06 45.2477 559.062 42.758 560.448 39.524C561.834 36.29 562.527 32.363 562.527 27.743C562.527 23.123 561.834 19.196 560.448 15.962C559.062 12.728 557.06 10.264 554.442 8.57C551.824 6.82467 548.692 5.952 545.048 5.952C541.454 5.952 538.349 6.799 535.731 8.493C533.113 10.187 531.085 12.6767 529.648 15.962C528.262 19.196 527.569 23.123 527.569 27.743C527.569 32.363 528.262 36.29 529.648 39.524C531.085 42.758 533.113 45.2477 535.731 46.993C538.349 48.687 541.454 49.534 545.048 49.534Z" fill="#67357D"/>
</svg>
